<mxfile host="65bd71144e">
    <diagram id="HIP3nbAZw_EuaXWnEj3U" name="Page-1">
        <mxGraphModel dx="744" dy="525" grid="1" gridSize="10" guides="1" tooltips="1" connect="1" arrows="1" fold="1" page="1" pageScale="1" pageWidth="850" pageHeight="1100" math="0" shadow="0">
            <root>
                <mxCell id="0"/>
                <mxCell id="1" parent="0"/>
                <mxCell id="7" value="http://ics2o.mths.ca" style="swimlane;whiteSpace=wrap;html=1;" parent="1" vertex="1">
                    <mxGeometry x="20" y="50" width="760" height="480" as="geometry"/>
                </mxCell>
                <mxCell id="8" value="&lt;span style=&quot;font-size: 22px;&quot;&gt;&amp;nbsp; &amp;nbsp;&amp;nbsp;triangular classifier&lt;/span&gt;" style="rounded=0;whiteSpace=wrap;html=1;align=left;" parent="7" vertex="1">
                    <mxGeometry y="23" width="760" height="47" as="geometry"/>
                </mxCell>
                <mxCell id="9" value="example Image" style="whiteSpace=wrap;html=1;aspect=fixed;" vertex="1" parent="7">
                    <mxGeometry x="450" y="90" width="220" height="220" as="geometry"/>
                </mxCell>
                <mxCell id="10" value="&lt;font color=&quot;#000000&quot;&gt;Input Length A&lt;/font&gt;" style="rounded=0;whiteSpace=wrap;html=1;fillColor=none;" vertex="1" parent="7">
                    <mxGeometry x="10" y="120" width="160" height="30" as="geometry"/>
                </mxCell>
                <mxCell id="11" value="&lt;font color=&quot;#000000&quot;&gt;Input Length B&lt;/font&gt;" style="rounded=0;whiteSpace=wrap;html=1;fillColor=none;" vertex="1" parent="7">
                    <mxGeometry x="180" y="120" width="160" height="30" as="geometry"/>
                </mxCell>
                <mxCell id="12" value="&lt;font color=&quot;#000000&quot;&gt;Input Length C&lt;/font&gt;" style="rounded=0;whiteSpace=wrap;html=1;fillColor=none;" vertex="1" parent="7">
                    <mxGeometry x="10" y="160" width="160" height="30" as="geometry"/>
                </mxCell>
                <mxCell id="13" value="Calculate" style="rounded=1;whiteSpace=wrap;html=1;fontColor=#000000;fillColor=none;" vertex="1" parent="7">
                    <mxGeometry x="200" y="160" width="120" height="30" as="geometry"/>
                </mxCell>
                <mxCell id="15" value="Answer" style="rounded=1;whiteSpace=wrap;html=1;fontColor=#000000;fillColor=none;" vertex="1" parent="7">
                    <mxGeometry y="200" width="190" height="40" as="geometry"/>
                </mxCell>
                <mxCell id="16" value="&lt;font style=&quot;font-size: 20px;&quot;&gt;Computer will classify your triangle&lt;/font&gt;" style="text;html=1;strokeColor=none;fillColor=none;align=center;verticalAlign=middle;whiteSpace=wrap;rounded=0;fontColor=#000000;" vertex="1" parent="7">
                    <mxGeometry x="10" y="80" width="310" height="30" as="geometry"/>
                </mxCell>
            </root>
        </mxGraphModel>
    </diagram>
</mxfile>